name Walk10.mot
datacolumns 19
datarows 27
range 1.49000000 1.62000000
endheader

                time	   L_ground_force_vx	   L_ground_force_vy	   L_ground_force_vz	   L_ground_force_px	   L_ground_force_py	   L_ground_force_pz	   R_ground_force_vx	   R_ground_force_vy	   R_ground_force_vz	   R_ground_force_px	   R_ground_force_py	   R_ground_force_pz	   L_ground_torque_x	   L_ground_torque_y	   L_ground_torque_z	   R_ground_torque_x	   R_ground_torque_y	   R_ground_torque_z	
          1.49000000	         -0.11687864	          0.79433455	         -0.06788337	          0.00058923	          0.00000000	          0.00041426	         35.04205671	        694.68724427	         -8.14428139	         -0.10638887	          0.00000000	          0.37974006	          0.00000000	         -0.00076835	          0.00000000	          0.00000000	         -0.04070222	          0.00000000	
          1.49500000	         -0.13420087	          0.75764767	         -0.05231917	          0.00047056	          0.00000000	          0.00032240	         38.37216830	        705.55042303	         -7.74981039	         -0.10487928	          0.00000000	          0.37949896	          0.00000000	         -0.00094953	          0.00000000	          0.00000000	         -0.11733655	          0.00000000	
          1.50000000	         -0.14466206	          0.60699968	         -0.02159625	          0.00022748	          0.00000000	          0.00013940	         41.91486318	        715.74120229	         -7.44547656	         -0.10343084	          0.00000000	          0.37924788	          0.00000000	         -0.00111494	          0.00000000	          0.00000000	         -0.19507182	          0.00000000	
          1.50500000	         -0.14313414	          0.29722214	          0.02897588	         -0.00017964	          0.00000000	         -0.00016317	         45.66534916	        725.17976882	         -7.19853056	         -0.10204496	          0.00000000	          0.37898596	          0.00000000	         -0.00123538	          0.00000000	          0.00000000	         -0.26924154	          0.00000000	
          1.51000000	         -0.12309907	         -0.22249450	          0.10426348	         -0.00079233	          0.00000000	         -0.00061486	         49.61986645	        733.80071725	         -6.96905965	         -0.10072498	          0.00000000	          0.37871245	          0.00000000	         -0.00127083	          0.00000000	          0.00000000	         -0.33377530	          0.00000000	
          1.51500000	         -0.07667521	         -1.00549026	          0.20880683	         -0.00165003	          0.00000000	         -0.00124339	         53.77412637	        741.54604901	         -6.71751534	         -0.09947474	          0.00000000	          0.37842621	          0.00000000	         -0.00116938	          0.00000000	          0.00000000	         -0.38322461	          0.00000000	
          1.52000000	          0.00517341	         -2.10247278	          0.34607786	         -0.00278402	          0.00000000	         -0.00207017	         58.12109642	        748.36221066	         -6.41000845	         -0.09829908	          0.00000000	          0.37812574	          0.00000000	         -0.00086697	          0.00000000	          0.00000000	         -0.41404455	          0.00000000	
          1.52500000	          0.13216846	         -3.55379114	          0.51745441	         -0.00420898	          0.00000000	         -0.00310411	         62.64821610	        754.19617218	         -6.02146510	         -0.09720079	          0.00000000	          0.37781175	          0.00000000	         -0.00028848	          0.00000000	          0.00000000	         -0.42463100	          0.00000000	
          1.53000000	          0.31390188	         -5.37866530	          0.72087886	         -0.00591197	          0.00000000	         -0.00433360	         67.33447896	        758.99487717	         -5.53841474	         -0.09617959	          0.00000000	          0.37748723	          0.00000000	          0.00064919	          0.00000000	          0.00000000	         -0.41510875	          0.00000000	
          1.53500000	          0.55858038	         -7.56099657	          0.94919021	         -0.00783845	          0.00000000	         -0.00571638	         72.14974075	        762.70999192	         -4.96024493	         -0.09523231	          0.00000000	          0.37715516	          0.00000000	          0.00203131	          0.00000000	          0.00000000	         -0.38689053	          0.00000000	
          1.54000000	          0.87123842	        -10.03159649	          1.18815250	         -0.00987587	          0.00000000	         -0.00716767	         77.05745724	        765.29902191	         -4.29897859	         -0.09435392	          0.00000000	          0.37681846	          0.00000000	          0.00393604	          0.00000000	          0.00000000	         -0.34315021	          0.00000000	
          1.54500000	          1.25134287	        -12.64702233	          1.41425287	         -0.01183501	          0.00000000	         -0.00854682	         82.01781984	        766.72468570	         -3.57786635	         -0.09353921	          0.00000000	          0.37648023	          0.00000000	          0.00642082	          0.00000000	          0.00000000	         -0.28891237	          0.00000000	
          1.55000000	          1.68974431	        -15.16573134	          1.59241211	         -0.01343046	          0.00000000	         -0.00964336	         86.99059802	        766.95501039	         -2.82843211	         -0.09278317	          0.00000000	          0.37614463	          0.00000000	          0.00950366	          0.00000000	          0.00000000	         -0.23007282	          0.00000000	
          1.55500000	          2.16498570	        -17.22299454	          1.67384089	         -0.01426202	          0.00000000	         -0.01016399	         91.93823260	        765.96422557	         -2.08759404	         -0.09208199	          0.00000000	          0.37581878	          0.00000000	          0.01313891	          0.00000000	          0.00000000	         -0.17262488	          0.00000000	
          1.56000000	          2.63906396	        -18.30697017	          1.59438769	         -0.01379984	          0.00000000	         -0.00972235	         96.82952858	        763.73086114	         -1.39472505	         -0.09143285	          0.00000000	          0.37551371	          0.00000000	          0.01718725	          0.00000000	          0.00000000	         -0.12212467	          0.00000000	
          1.56500000	          3.05286128	        -17.73953630	          1.27385720	         -0.01137720	          0.00000000	         -0.00783462	        101.64166342	        760.23156845	         -0.78778091	         -0.09083342	          0.00000000	          0.37524557	          0.00000000	          0.02138047	          0.00000000	          0.00000000	         -0.08405231	          0.00000000	
          1.57000000	          3.32162491	        -14.66690847	          0.61692611	         -0.00619627	          0.00000000	         -0.00392470	        106.35871195	        755.43652272	         -0.29833630	         -0.09028334	          0.00000000	          0.37503390	          0.00000000	          0.02528250	          0.00000000	          0.00000000	         -0.06318956	          0.00000000	
          1.57500000	          3.33107983	         -8.06667331	         -0.48356321	          0.00264694	          0.00000000	          0.00265636	        110.96846646	        749.30311927	          0.05261379	         -0.08978524	          0.00000000	          0.37489961	          0.00000000	          0.02824919	          0.00000000	          0.00000000	         -0.06233173	          0.00000000	
          1.58000000	          2.93500796	          3.22044681	         -2.14000702	          0.01611043	          0.00000000	          0.01259114	        115.45913884	        741.76434039	          0.25849369	         -0.08934496	          0.00000000	          0.37486575	          0.00000000	          0.02939146	          0.00000000	          0.00000000	         -0.08202249	          0.00000000	
          1.58500000	          1.95541263	         20.42418138	         -4.45910893	          0.03511825	          0.00000000	          0.02653039	        119.81538255	        732.71861839	          0.33068720	         -0.08896992	          0.00000000	          0.37495780	          0.00000000	          0.02754792	          0.00000000	          0.00000000	         -0.12021300	          0.00000000	
          1.59000000	          0.18669427	         44.73246094	         -7.52553604	          0.06042759	          0.00000000	          0.04499504	        124.01361931	        722.02063266	          0.29927689	         -0.08866712	          0.00000000	          0.37520353	          0.00000000	          0.02127570	          0.00000000	          0.00000000	         -0.17301128	          0.00000000	
          1.59500000	         -2.59443391	         77.12153034	        -11.37915036	          0.09244205	          0.00000000	          0.06823928	        128.01524608	        709.47386356	          0.21190529	         -0.08844190	          0.00000000	          0.37563247	          0.00000000	          0.00887103	          0.00000000	          0.00000000	         -0.23555615	          0.00000000	
          1.60000000	         -6.61130221	        118.11713773	        -15.98502956	          0.13096404	          0.00000000	          0.09607005	        131.75927263	        694.83076799	          0.12951089	         -0.08829642	          0.00000000	          0.37627204	          0.00000000	         -0.01156660	          0.00000000	          0.00000000	         -0.30226802	          0.00000000	
          1.60500000	        -12.05976593	        167.47769625	        -21.19594113	          0.17488291	          0.00000000	          0.12762066	        135.15660571	        677.80425747	          0.12027722	         -0.08822963	          0.00000000	          0.37713900	          0.00000000	         -0.04201014	          0.00000000	          0.00000000	         -0.36641178	          0.00000000	
          1.61000000	        -19.06873786	        223.79507505	        -26.70769064	          0.22180451	          0.00000000	          0.16108332	        138.08647241	        658.08378563	          0.25107097	         -0.08823471	          0.00000000	          0.37822867	          0.00000000	         -0.08430299	          0.00000000	          0.00000000	         -0.41982308	          0.00000000	
          1.61500000	        -27.65747630	        284.08441436	        -32.01193483	          0.26810532	          0.00000000	          0.19375459	        140.39610790	        635.35168164	          0.57584105	         -0.08829506	          0.00000000	          0.37950924	          0.00000000	         -0.14000579	          0.00000000	          0.00000000	         -0.45470497	          0.00000000	
          1.62000000	        -37.74239031	        344.16410463	        -36.38201959	          0.31070608	          0.00000000	          0.22333327	        141.90392605	        609.30419468	          1.12499917	         -0.08838146	          0.00000000	          0.38091423	          0.00000000	         -0.21104884	          0.00000000	          0.00000000	         -0.46512943	          0.00000000	
